<?xml version="1.0" encoding="UTF-8"?>
<svg version="1.1" xmlns="http://www.w3.org/2000/svg" width="807" height="271">
<path d="M0 0 C1.13953125 -0.04898438 2.2790625 -0.09796875 3.453125 -0.1484375 C7.82871438 0.54626508 9.06616623 1.88830997 11.75 5.375 C13.09656325 7.92202691 14.09068435 10.54072301 15.0625 13.25 C15.35535889 14.03318604 15.64821777 14.81637207 15.94995117 15.62329102 C18.59342685 22.76116371 21.06829368 29.96120705 23.5402832 37.15991211 C27.72552498 49.31116855 32.24545217 61.33923748 36.75 73.375 C37.06638428 72.47595947 37.38276855 71.57691895 37.70874023 70.65063477 C41.12327877 60.95064024 44.54743227 51.25406996 47.97753906 41.55957031 C48.69301929 39.53614518 49.40728974 37.51229819 50.12109375 35.48828125 C51.30483301 32.13619718 52.49502151 28.78648334 53.6875 25.4375 C54.02773193 24.47078369 54.36796387 23.50406738 54.71850586 22.50805664 C61.40474677 3.81574532 61.40474677 3.81574532 65.75 0.375 C68.59765625 0.046875 68.59765625 0.046875 71.8125 0.125 C72.87597656 0.14046875 73.93945312 0.1559375 75.03515625 0.171875 C77.75 0.375 77.75 0.375 79.75 1.375 C80.14066893 7.31082076 78.88661966 11.4988885 76.62890625 16.953125 C76.29742081 17.78184616 75.96593536 18.61056732 75.62440491 19.46440125 C74.53162718 22.18925801 73.42223989 24.90701237 72.3125 27.625 C71.54682399 29.52369034 70.78235613 31.42286829 70.01904297 33.32250977 C68.82745292 36.28685017 67.63469794 39.25067978 66.43725586 42.21266174 C63.55864723 49.33610819 60.73549452 56.47973433 57.94140625 63.63671875 C57.16793923 65.61362706 56.39442113 67.59051539 55.62084961 69.56738281 C54.50224321 72.42667696 53.38510609 75.28649413 52.27297974 78.14831543 C51.24236957 80.79776234 50.20408393 83.44407978 49.1640625 86.08984375 C48.86162125 86.87332687 48.55917999 87.65681 48.24757385 88.46403503 C45.43008417 95.5936453 45.43008417 95.5936453 42.75 98.375 C39.97265625 98.90625 39.97265625 98.90625 36.8125 98.875 C35.77222656 98.8853125 34.73195313 98.895625 33.66015625 98.90625 C30.02258744 98.24221059 28.96545872 97.30291901 26.75 94.375 C25.44140625 91.5625 25.44140625 91.5625 24.3125 88.375 C22.40289632 83.0520629 20.30106606 77.84207408 18.11254883 72.62695312 C12.2514885 58.63854182 6.44269081 44.61346311 1.234375 30.3671875 C0.06711426 27.18450063 -1.17030765 24.03327247 -2.421875 20.8828125 C-2.79675049 19.92938965 -3.17162598 18.9759668 -3.55786133 17.99365234 C-4.29641394 16.11814053 -5.04331558 14.24588945 -5.79956055 12.37744141 C-6.1325415 11.52585449 -6.46552246 10.67426758 -6.80859375 9.796875 C-7.11079834 9.03987305 -7.41300293 8.28287109 -7.72436523 7.50292969 C-8.32798778 5.05928171 -8.10659405 3.71949761 -7.25 1.375 C-5.38748319 -0.48751681 -2.4996451 0.07285961 0 0 Z " fill="#143F79" transform="translate(261.25,68.625)"/>
<path d="M0 0 C8.56940409 5.66869873 13.51290832 11.74222843 16.015625 21.66796875 C18.01554562 32.19482363 18.01554562 32.19482363 15.36816406 36.37402344 C11.34503085 39.14719256 7.52127682 38.6631845 2.75 38.55859375 C1.77903381 38.55293396 0.80806763 38.54727417 -0.19232178 38.54144287 C-3.29017669 38.51907186 -6.38687033 38.46887348 -9.484375 38.41796875 C-11.58592078 38.39790472 -13.68748472 38.37965378 -15.7890625 38.36328125 C-20.9379467 38.31920455 -26.08596403 38.25017133 -31.234375 38.16796875 C-30.93789063 39.410625 -30.64140625 40.65328125 -30.3359375 41.93359375 C-30.16916504 42.63258789 -30.00239258 43.33158203 -29.83056641 44.05175781 C-28.39070774 49.16260751 -26.33912287 52.88529361 -21.671875 55.60546875 C-15.25470021 58.37787946 -8.25227825 58.12934951 -1.734375 55.79296875 C1.77554511 54.27166198 1.77554511 54.27166198 4.765625 52.16796875 C8.52368085 52.30218503 10.88887628 52.40081362 13.765625 54.91796875 C14.765625 57.16796875 14.765625 57.16796875 14.890625 59.54296875 C12.70042865 64.6534269 8.93041754 67.19620414 3.9375 69.4375 C-6.94447366 73.23010905 -18.86384604 74.18688248 -29.6640625 69.625 C-38.26117616 64.75156019 -44.07343902 58.34177366 -46.90625 48.9375 C-49.79294382 36.98112627 -49.36728821 24.15317288 -43.55859375 13.18359375 C-39.25507338 6.63310256 -32.88700216 0.85167023 -25.27050781 -1.41699219 C-17.92285977 -2.91471421 -6.90005767 -3.3101628 0 0 Z M-26.234375 15.16796875 C-29.37867899 19.25975634 -31.234375 21.90385631 -31.234375 27.16796875 C-26.83781327 27.19262379 -22.4412878 27.21080717 -18.04467773 27.22290039 C-16.54792582 27.22793996 -15.05117884 27.23477162 -13.55444336 27.2434082 C-11.40737693 27.25549034 -9.26037538 27.26120066 -7.11328125 27.265625 C-5.8197876 27.27086182 -4.52629395 27.27609863 -3.19360352 27.28149414 C-0.34785096 27.50793807 -0.34785096 27.50793807 0.765625 26.16796875 C0.65100693 20.43706538 -1.04726537 17.62116505 -4.76171875 13.55078125 C-8.34537486 10.18575668 -12.59001007 10.83714376 -17.25390625 10.8984375 C-21.35162972 11.26900489 -23.29105564 12.29643766 -26.234375 15.16796875 Z " fill="#14407A" transform="translate(385.234375,95.83203125)"/>
<path d="M0 0 C0.83225098 0.00499512 1.66450195 0.00999023 2.52197266 0.01513672 C9.85926592 0.22411482 14.80590963 1.81512183 20.06640625 7.0625 C30.26339203 18.68299661 27.7452306 35.26107806 27.625 49.75 C27.61495067 51.86327701 27.60582827 53.97655864 27.59765625 56.08984375 C27.57579629 61.22667817 27.54137377 66.36328721 27.5 71.5 C21.890625 73.5703125 21.890625 73.5703125 18.375 72.9375 C15.07950727 71.28975363 13.56296412 69.51510141 11.5 66.5 C10.943125 66.90992188 10.38625 67.31984375 9.8125 67.7421875 C2.02438568 73.24122768 -4.92678596 75.50942053 -14.5 74.5 C-20.62860437 73.38386344 -24.56868911 71.32404185 -28.34765625 66.3203125 C-31.89756713 60.71265666 -32.26680454 54.8591171 -31.140625 48.45703125 C-29.32107491 42.10090019 -25.10774167 38.70210176 -19.5 35.5 C-9.83140401 31.17664407 0.08767312 30.74939705 10.5 30.5 C10.09826623 22.96081522 10.09826623 22.96081522 6.5 16.5 C2.55393604 14.19812935 -1.00219778 14.11883032 -5.5 14.5 C-9.50287403 15.63259614 -13.02815765 17.22633144 -16.625 19.3125 C-19.5 20.5 -19.5 20.5 -22.75 19.9375 C-25.5 18.5 -25.5 18.5 -26.9375 16.6875 C-27.72054271 13.64233392 -27.76031451 12.44073385 -26.5 9.5 C-19.19357792 2.15648948 -10.08755101 -0.07975157 0 0 Z M-13.0625 46.875 C-15.12378452 50.63908477 -15.85704959 52.96468676 -14.875 57.1875 C-13.66720485 59.63475159 -13.66720485 59.63475159 -11.3125 60.8125 C-5.14339319 62.32050389 -0.92033816 61.60168068 4.60546875 58.765625 C6.98364065 57.1769081 8.71766182 55.75632262 10.5 53.5 C10.98195275 50.45559865 10.98195275 50.45559865 10.75 47.25 C10.69585938 45.63351563 10.69585938 45.63351563 10.640625 43.984375 C10.59421875 43.16453125 10.5478125 42.3446875 10.5 41.5 C2.16320838 41.07206583 -6.61745329 40.90154208 -13.0625 46.875 Z " fill="#18427B" transform="translate(652.5,93.5)"/>
<path d="M0 0 C6.7577138 5.6935069 8.73742156 12.1980278 9.984375 20.671875 C10.22738843 24.50184755 10.21935535 28.31203376 10.1796875 32.1484375 C10.1768576 33.19969818 10.17402771 34.25095886 10.17111206 35.33407593 C10.16001643 38.65513024 10.13493206 41.97590373 10.109375 45.296875 C10.09933146 47.56379816 10.09020803 49.83072559 10.08203125 52.09765625 C10.06011201 57.62248985 10.02674199 63.14716235 9.984375 68.671875 C1.79206731 69.99879808 1.79206731 69.99879808 -2.015625 67.671875 C-3.828125 65.046875 -3.828125 65.046875 -5.015625 62.671875 C-5.964375 63.435 -6.913125 64.198125 -7.890625 64.984375 C-15.06038747 70.06235566 -23.35530721 71.65254894 -32.015625 70.671875 C-38.15603042 69.57076837 -42.07462869 67.50215267 -45.86328125 62.49609375 C-49.21888265 57.18400611 -49.84493293 51.82662564 -48.62109375 45.6953125 C-46.81960804 39.67486347 -43.21260995 36.06459109 -38.015625 32.671875 C-28.53873713 27.87363997 -17.53950963 26.48082112 -7.015625 26.671875 C-7.25239639 19.81563341 -7.25239639 19.81563341 -9.890625 13.609375 C-12.58819824 11.14982293 -14.47320762 10.72722371 -18.078125 10.359375 C-23.93129939 10.82391265 -29.00301151 13.06111633 -34.15625 15.81640625 C-36.79653925 17.03116118 -38.30084449 16.57680184 -41.015625 15.671875 C-43.62344791 13.96330137 -43.95886099 12.92731304 -44.640625 9.859375 C-43.84523576 5.80288989 -42.47364403 4.50480602 -39.234375 2.0625 C-28.3690481 -4.74745841 -11.3770308 -6.98314304 0 0 Z M-30.140625 42.859375 C-32.79393014 46.8393327 -32.62555787 48.94489529 -32.015625 53.671875 C-30.20399233 56.34618989 -29.13801423 56.63107859 -26.015625 57.671875 C-19.87570386 58.28586711 -15.26504895 56.71369237 -10.015625 53.671875 C-7.10399247 51.14317827 -6.45426149 49.53187614 -6.015625 45.671875 C-5.9378904 43.33983688 -5.92594772 41.00348441 -6.015625 38.671875 C-7.60906483 37.07843517 -9.24741291 37.46316758 -11.453125 37.421875 C-18.42038315 37.51171071 -24.3926103 38.83576471 -30.140625 42.859375 Z " fill="#15407A" transform="translate(568.015625,97.328125)"/>
<path d="M0 0 C1.3125 2.125 1.3125 2.125 1.1875 5.1875 C0.3125 8.125 0.3125 8.125 -1.6875 11.125 C-5.23240125 11.60839562 -7.14181908 11.44442298 -10.25 9.625 C-15.46510341 7.34931851 -21.1001004 7.0277329 -26.6875 8.125 C-29.362019 10.13721285 -29.362019 10.13721285 -30.6875 13.125 C-30.7074218 16.34018349 -30.7074218 16.34018349 -28.6875 19.125 C-25.96753552 20.79424266 -23.08369631 21.7542137 -20.0625 22.75 C-2.27268607 28.96324638 -2.27268607 28.96324638 2.234375 36.50390625 C4.64496944 42.36444564 4.49107149 48.05046567 2.234375 53.9375 C-1.65837508 61.12411553 -6.45411765 64.34697941 -13.8125 67.4375 C-24.73746952 69.37580104 -35.92045203 68.92323831 -45.578125 62.95703125 C-47 61.75 -47 61.75 -48.6875 59.125 C-48.76258286 55.44593985 -48.08553361 53.69993744 -46 50.6875 C-43.6875 49.125 -43.6875 49.125 -41 49.125 C-38.23549188 49.95956849 -36.00661635 50.92333164 -33.4375 52.1875 C-27.47388832 54.94768514 -21.86012769 55.16096006 -15.625 53.125 C-12.65427575 50.05844594 -12.89418692 47.32763395 -12.6875 43.125 C-15.39221685 41.7124521 -18.06361152 40.58540559 -20.953125 39.609375 C-22.16548828 39.18591797 -22.16548828 39.18591797 -23.40234375 38.75390625 C-25.07368849 38.1744724 -26.74814808 37.60393557 -28.42578125 37.04296875 C-35.28251084 34.61975053 -41.21850151 31.36556051 -45.6875 25.5 C-47.57803841 19.11943287 -47.88252383 12.06094657 -45.3125 5.8125 C-42.27014992 0.58140886 -36.4900865 -3.48341515 -30.8515625 -5.546875 C-19.76177297 -7.22835933 -9.36755419 -6.53550292 0 0 Z " fill="#15407B" transform="translate(508.6875,99.875)"/>
<path d="M0 0 C4.27944031 1.83404585 7.71911635 3.35050761 10.625 7.125 C11.77051963 12.34262965 11.55739158 17.50040535 11.40625 22.8046875 C11.39131568 24.34307913 11.37993427 25.881509 11.37194824 27.41995239 C11.3415055 31.45530573 11.26301828 35.48832903 11.17431641 39.52276611 C11.09225029 43.6450651 11.05589296 47.76774335 11.015625 51.890625 C10.93000948 59.96981541 10.79360584 68.04711731 10.625 76.125 C4.88469442 74.83375128 0.40596121 71.39710188 -4.5 68.25 C-5.51449219 67.61191406 -6.52898437 66.97382813 -7.57421875 66.31640625 C-8.54230469 65.69894531 -9.51039062 65.08148438 -10.5078125 64.4453125 C-11.39355957 63.88086426 -12.27930664 63.31641602 -13.19189453 62.73486328 C-15.375 61.125 -15.375 61.125 -17.375 58.125 C-17.71208339 55.51040537 -17.93719386 53.00032344 -18.0625 50.375 C-18.1030249 49.61783691 -18.1435498 48.86067383 -18.18530273 48.08056641 C-18.45735196 41.94953696 -18.16463124 35.94884024 -17.59765625 29.8359375 C-17.43550799 27.13346657 -17.41997128 24.77077256 -17.62109375 22.1015625 C-18.24852183 12.2750735 -18.24852183 12.2750735 -15.5859375 8.76953125 C-13.27095458 6.95393427 -10.95419255 5.53298544 -8.375 4.125 C-7.28566566 3.29952665 -6.20127741 2.46742656 -5.125 1.625 C-2.375 0.125 -2.375 0.125 0 0 Z " fill="#3D7EC6" transform="translate(135.375,127.875)"/>
<path d="M0 0 C4.33769185 0.73689645 6.69017179 1.97539171 10.1875 4.6875 C14.64165574 8.04924085 19.16412471 11.00121063 24.00390625 13.7734375 C26 15 26 15 28 17 C28.27415466 18.99116516 28.27415466 18.99116516 28.30639648 21.4621582 C28.32238388 22.38684402 28.33837128 23.31152985 28.35484314 24.26423645 C28.36288719 25.76732613 28.36288719 25.76732613 28.37109375 27.30078125 C28.38463646 28.84357002 28.38463646 28.84357002 28.39845276 30.41752625 C28.41298074 32.59725015 28.42184829 34.77701791 28.42553711 36.95678711 C28.43741622 40.2889999 28.48656373 43.61935119 28.53710938 46.95117188 C28.5465752 49.06769928 28.55380947 51.18423808 28.55859375 53.30078125 C28.57812607 54.29676834 28.59765839 55.29275543 28.61778259 56.31892395 C28.57262312 63.25990155 28.57262312 63.25990155 25.64599609 67.04248047 C22.88243988 69.0869715 20.11701782 71.01243484 17.1875 72.8125 C15.72376953 73.71935547 15.72376953 73.71935547 14.23046875 74.64453125 C13.49441406 75.09183594 12.75835937 75.53914063 12 76 C10.55901389 75.23570339 9.12233946 74.46327445 7.6875 73.6875 C6.88699219 73.25824219 6.08648437 72.82898438 5.26171875 72.38671875 C3.00186314 71.00114234 1.59476383 70.10884084 0 68 C-0.36076355 65.05769348 -0.36076355 65.05769348 -0.34057617 61.41723633 C-0.34101425 60.75355545 -0.34145233 60.08987457 -0.34190369 59.40608215 C-0.33981519 57.21443161 -0.31648268 55.02354799 -0.29296875 52.83203125 C-0.28737298 51.3117464 -0.28310279 49.79145614 -0.28010559 48.27116394 C-0.26865524 44.27122035 -0.23918672 40.27160394 -0.20599365 36.27178955 C-0.17529669 32.1897016 -0.16160107 28.10756075 -0.14648438 24.02539062 C-0.11431695 16.01677699 -0.0631186 8.00842921 0 0 Z " fill="#99D0ED" transform="translate(150,46)"/>
<path d="M0 0 C1.14726562 -0.00515625 2.29453125 -0.0103125 3.4765625 -0.015625 C6.375 0.25 6.375 0.25 8.375 2.25 C8.60546875 4.96484375 8.60546875 4.96484375 8.5625 8.1875 C8.55605469 9.24839844 8.54960937 10.30929688 8.54296875 11.40234375 C8.375 14.25 8.375 14.25 7.375 17.25 C5.85519531 17.28867188 5.85519531 17.28867188 4.3046875 17.328125 C2.95308403 17.38444181 1.60152319 17.44178833 0.25 17.5 C-0.41515625 17.51417969 -1.0803125 17.52835938 -1.765625 17.54296875 C-6.80944458 17.79021481 -9.77606377 19.0146623 -13.625 22.25 C-17.42040541 26.91059704 -17.09757449 31.62548528 -17.13671875 37.36328125 C-17.15466995 38.33283249 -17.17262115 39.30238373 -17.19111633 40.30131531 C-17.24516049 43.38833306 -17.27909647 46.4751967 -17.3125 49.5625 C-17.34567824 51.65952662 -17.38016837 53.75653293 -17.41601562 55.85351562 C-17.50088378 60.9855658 -17.56772337 66.11757072 -17.625 71.25 C-21.55535286 73.4558996 -25.18291006 73.81249928 -29.625 73.25 C-31.29941559 72.60304199 -32.96712277 71.93823348 -34.625 71.25 C-34.67128239 62.41846012 -34.70684825 53.5869618 -34.72862434 44.75532722 C-34.73907426 40.65471243 -34.75325537 36.55418042 -34.77587891 32.45361328 C-34.7975644 28.49844419 -34.80955952 24.54335489 -34.81475449 20.58813095 C-34.81845799 19.07700214 -34.82568975 17.56587783 -34.83646011 16.05478287 C-34.85091823 13.94283768 -34.85298037 11.83122476 -34.85205078 9.71923828 C-34.856492 8.51566681 -34.86093323 7.31209534 -34.86550903 6.072052 C-34.625 3.25 -34.625 3.25 -32.625 1.25 C-29.56794 0.67942888 -26.68688582 0.72646512 -23.625 1.25 C-20.0233609 3.95122933 -18.51452754 5.91355324 -17.625 10.25 C-17.16609375 9.69570312 -16.7071875 9.14140625 -16.234375 8.5703125 C-15.62078125 7.84585938 -15.0071875 7.12140625 -14.375 6.375 C-13.77171875 5.65570313 -13.1684375 4.93640625 -12.546875 4.1953125 C-8.63992272 0.24071446 -5.4851142 -0.0247635 0 0 Z " fill="#174079" transform="translate(448.625,93.75)"/>
<path d="M0 0 C3.84974149 0.68667417 6.15902713 1.53370043 9.3125 3.875 C13.97346316 7.26159106 18.68462838 10.5569033 23.4375 13.8125 C24.13593018 14.29251465 24.83436035 14.7725293 25.55395508 15.26708984 C28.35909648 17.19457831 31.16799274 19.11199516 34 21 C34.79848678 24.67908833 34.69460524 28.43219709 34.75 32.1875 C34.811875 33.21681641 34.87375 34.24613281 34.9375 35.30664062 C35.05166636 42.73221083 35.05166636 42.73221083 32.3059082 46.04223633 C29.9600686 47.88960123 27.54776714 49.44408453 25 51 C23.28874312 52.21570336 21.58435162 53.44112446 19.88671875 54.67578125 C18.1553621 55.8904708 16.42227883 57.10270293 14.6875 58.3125 C13.80771484 58.93189453 12.92792969 59.55128906 12.02148438 60.18945312 C11.17263672 60.78306641 10.32378906 61.37667969 9.44921875 61.98828125 C8.68955811 62.51977783 7.92989746 63.05127441 7.1472168 63.59887695 C5.15053645 64.90177047 3.15441731 65.98434176 1 67 C-0.05866606 63.54166246 -0.12073782 60.36891098 -0.11352539 56.76269531 C-0.11344986 55.50169006 -0.11337433 54.24068481 -0.11329651 52.94146729 C-0.10819028 51.57035279 -0.1029743 50.19923869 -0.09765625 48.828125 C-0.09579028 47.42136689 -0.09436722 46.01460812 -0.09336853 44.60784912 C-0.08955744 40.91219273 -0.0797392 37.21657587 -0.06866455 33.52093506 C-0.05842014 29.74703506 -0.05386442 25.97312865 -0.04882812 22.19921875 C-0.03811564 14.79946118 -0.02105616 7.39973614 0 0 Z " fill="#66A5D7" transform="translate(80,92)"/>
<path d="M0 0 C0.14537987 6.18483085 0.28762852 12.36972388 0.42724609 18.5546875 C0.47493383 20.64910725 0.52340811 22.74350928 0.57275391 24.83789062 C0.89542975 38.56149181 1.06850393 52.27257329 1 66 C0.01 66.495 0.01 66.495 -1 67 C-2.23312221 66.15762424 -3.46618091 65.3151555 -4.69921875 64.47265625 C-5.49086426 63.93181396 -6.28250977 63.39097168 -7.09814453 62.83374023 C-8.83066077 61.6486181 -10.56209975 60.46191965 -12.29248047 59.27368164 C-16.21756303 56.57898543 -20.1450251 53.892476 -24.12109375 51.2734375 C-25.01985229 50.67390259 -25.01985229 50.67390259 -25.93676758 50.06225586 C-27.52858239 49.00173658 -29.12736221 47.95169306 -30.7265625 46.90234375 C-33.70311611 44.4116537 -33.84356405 42.59496262 -34.2121582 38.83691406 C-34.80551754 23.29514941 -34.80551754 23.29514941 -30.92578125 18.36328125 C-28.37167796 16.72110326 -25.79885368 15.36777184 -23.05273438 14.07861328 C-18.7363584 11.81056511 -14.84706117 8.81419971 -10.875 6 C-9.2308492 4.84802415 -7.58268875 3.7017397 -5.9296875 2.5625 C-4.86596924 1.82193359 -4.86596924 1.82193359 -3.78076172 1.06640625 C-2 0 -2 0 0 0 Z " fill="#6FB1E1" transform="translate(215,92)"/>
<path d="M0 0 C2.01074628 0.90807897 3.99238073 1.83297182 5.9375 2.875 C5.9375 3.535 5.9375 4.195 5.9375 4.875 C6.67540771 5.14812012 7.41331543 5.42124023 8.17358398 5.70263672 C10.77516615 6.80614326 12.84905017 8.02226129 15.16015625 9.6328125 C15.94028076 10.17220459 16.72040527 10.71159668 17.52416992 11.26733398 C18.74970581 12.12500366 18.74970581 12.12500366 20 13 C21.7053075 14.18159838 23.41103627 15.36258899 25.1171875 16.54296875 C26.3561377 17.40220947 26.3561377 17.40220947 27.62011719 18.27880859 C30.59701555 20.32926808 33.60613476 22.32437263 36.625 24.3125 C41.19284073 27.33845356 45.61003021 30.51484699 49.9375 33.875 C48.42212479 38.56285138 44.5577125 40.47316661 40.625 43 C39.96048828 43.44214844 39.29597656 43.88429687 38.61132812 44.33984375 C31.21358426 49.18386595 31.21358426 49.18386595 27.9375 49.875 C25.38671875 48.70703125 25.38671875 48.70703125 22.625 46.6875 C21.57957031 45.94242188 20.53414062 45.19734375 19.45703125 44.4296875 C18.89322754 44.0181543 18.32942383 43.60662109 17.74853516 43.18261719 C15.16133569 41.31458802 12.52329243 39.52404416 9.88647461 37.72705078 C6.55976517 35.45807438 3.24969454 33.16508573 -0.0625 30.875 C-1.10921875 30.153125 -2.1559375 29.43125 -3.234375 28.6875 C-4.12640625 28.06875 -5.0184375 27.45 -5.9375 26.8125 C-6.69804687 26.28527344 -7.45859375 25.75804687 -8.2421875 25.21484375 C-10.0625 23.875 -10.0625 23.875 -12.0625 21.875 C-12.81131282 16.09731792 -13.33514985 10.65670979 -9.875 5.8125 C-8.946875 5.173125 -8.01875 4.53375 -7.0625 3.875 C-6.216875 3.09125 -5.37125 2.3075 -4.5 1.5 C-2.0625 -0.125 -2.0625 -0.125 0 0 Z " fill="#397CC6" transform="translate(162.0625,128.125)"/>
<path d="M0 0 C4.47961479 1.17529331 7.71719613 3.36685931 11.52294922 5.94702148 C12.28420609 6.45137222 13.04546295 6.95572296 13.82978821 7.47535706 C16.25097168 9.08264044 18.66235165 10.70398125 21.07373047 12.32592773 C22.7065662 13.41345947 24.34002364 14.50005837 25.97412109 15.58569336 C29.56756749 17.97573115 33.15492409 20.37459492 36.73710632 22.78147888 C38.28470389 23.8202796 39.83536256 24.8545158 41.38623047 25.88842773 C42.43150324 31.07044667 42.40598339 35.7421099 41.38623047 40.88842773 C38.63208749 44.57087589 35.60841942 47.04601801 31.38623047 48.88842773 C27.97181328 48.67462172 25.78231467 46.93909403 23.07373047 44.95092773 C18.92091057 41.96646679 14.71416961 39.08366502 10.44873047 36.26342773 C4.33294573 32.20640625 -1.74295195 28.09325823 -7.80126953 23.95092773 C-9.02221313 23.11730713 -9.02221313 23.11730713 -10.26782227 22.2668457 C-11.41939819 21.47818115 -11.41939819 21.47818115 -12.59423828 20.67358398 C-13.27381592 20.20831299 -13.95339355 19.74304199 -14.65356445 19.26367188 C-16.6733782 17.84660738 -18.64778229 16.37904294 -20.61376953 14.88842773 C-19.27979983 10.88651863 -16.67435052 9.6078491 -13.30126953 7.38842773 C-8.77984733 4.42347389 -8.77984733 4.42347389 -4.57080078 1.04467773 C-2.61376953 -0.11157227 -2.61376953 -0.11157227 0 0 Z " fill="#71B3E1" transform="translate(104.61376953125,73.111572265625)"/>
<path d="M0 0 C1.06347656 0.00515625 2.12695312 0.0103125 3.22265625 0.015625 C4.28355469 0.01046875 5.34445312 0.0053125 6.4375 0 C9.28515625 0.265625 9.28515625 0.265625 12.28515625 2.265625 C12.6459198 5.087677 12.6459198 5.087677 12.62573242 8.73486328 C12.62638954 9.73016556 12.62638954 9.73016556 12.62705994 10.74557495 C12.62496693 12.94266 12.60161324 15.13898549 12.578125 17.3359375 C12.57253083 18.8576516 12.56825989 20.3793711 12.56526184 21.90109253 C12.55379886 25.90926999 12.52431955 29.91712212 12.4911499 33.9251709 C12.46048009 38.01387124 12.44676314 42.10262407 12.43164062 46.19140625 C12.39945092 54.21629525 12.34823741 62.24091968 12.28515625 70.265625 C8.18910709 71.71251628 5.30751969 72.49909414 0.97265625 71.953125 C0.11027344 71.85386719 -0.75210938 71.75460938 -1.640625 71.65234375 C-3.71484375 71.265625 -3.71484375 71.265625 -4.71484375 70.265625 C-4.81958933 68.15968072 -4.85340832 66.05018734 -4.86010742 63.94165039 C-4.86346603 63.28147415 -4.86682465 62.62129791 -4.87028503 61.94111633 C-4.8798207 59.74848575 -4.88173945 57.55593131 -4.8828125 55.36328125 C-4.8860233 53.8449246 -4.88938724 52.32656827 -4.89289856 50.80821228 C-4.8988964 47.62123904 -4.90073779 44.43429294 -4.90014648 41.24731445 C-4.90004483 37.156929 -4.91369718 33.06671703 -4.93091869 28.97637272 C-4.94201946 25.83917944 -4.94406629 22.70202834 -4.94353676 19.56481743 C-4.94471978 18.0564864 -4.9491595 16.54815439 -4.95686913 15.03984261 C-4.96663037 12.93276841 -4.96380657 10.82607402 -4.95776367 8.71899414 C-4.95918869 7.51843887 -4.96061371 6.31788361 -4.96208191 5.08094788 C-4.62628417 1.25718924 -3.83226496 0.37495542 0 0 Z " fill="#1B437B" transform="translate(700.71484375,94.734375)"/>
<path d="M0 0 C2 1.375 2 1.375 4 3 C4 3.66 4 4.32 4 5 C4.94637329 4.94670532 4.94637329 4.94670532 5.91186523 4.89233398 C8.75347554 4.73532591 11.595449 4.5863081 14.4375 4.4375 C15.92733398 4.35338867 15.92733398 4.35338867 17.44726562 4.26757812 C18.39150391 4.21923828 19.33574219 4.17089844 20.30859375 4.12109375 C21.18314209 4.0739624 22.05769043 4.02683105 22.95874023 3.97827148 C25 4 25 4 26 5 C26.08858646 7.73894085 26.11523479 10.4525327 26.09765625 13.19140625 C26.0962413 14.01124496 26.09482635 14.83108368 26.09336853 15.67576599 C26.08775289 18.30471382 26.07519779 20.93357773 26.0625 23.5625 C26.05748701 25.34049357 26.05292376 27.11848846 26.04882812 28.89648438 C26.03777839 33.26435545 26.02050331 37.63216348 26 42 C20.28246592 40.94760132 15.68528006 37.21072383 10.875 34.125 C9.35326172 33.16787109 9.35326172 33.16787109 7.80078125 32.19140625 C6.83269531 31.57394531 5.86460938 30.95648438 4.8671875 30.3203125 C3.98144043 29.75586426 3.09569336 29.19141602 2.18310547 28.60986328 C0 27 0 27 -2 24 C-2.33071486 21.20186471 -2.55633047 18.49452801 -2.6875 15.6875 C-2.73455078 14.94048828 -2.78160156 14.19347656 -2.83007812 13.42382812 C-3.0589356 9.15057139 -3.07067879 5.18538073 -2 1 C-1.34 0.67 -0.68 0.34 0 0 Z " fill="#13379C" transform="translate(120,162)"/>
<path d="M0 0 C0.14547545 4.06212212 0.23413226 8.12357287 0.3125 12.1875 C0.35439453 13.33798828 0.39628906 14.48847656 0.43945312 15.67382812 C0.56345622 24.2300415 0.56345622 24.2300415 -2.23828125 28.05859375 C-3.14964844 28.69925781 -4.06101563 29.33992188 -5 30 C-5.7528125 30.67804688 -6.505625 31.35609375 -7.28125 32.0546875 C-8.0134375 32.65539062 -8.745625 33.25609375 -9.5 33.875 C-10.2321875 34.49117187 -10.964375 35.10734375 -11.71875 35.7421875 C-14 37 -14 37 -16.3359375 36.96484375 C-19.90976835 35.67050912 -22.96839342 33.76421485 -26.125 31.6875 C-26.74503906 31.29626953 -27.36507812 30.90503906 -28.00390625 30.50195312 C-31.32030494 28.351643 -33.8888952 26.36698101 -36 23 C-28.53083437 17.15456603 -20.80322002 11.73513745 -12.9375 6.4375 C-12.0091333 5.80569824 -11.0807666 5.17389648 -10.12426758 4.52294922 C-8.80785278 3.64340576 -8.80785278 3.64340576 -7.46484375 2.74609375 C-6.677146 2.21685303 -5.88944824 1.6876123 -5.07788086 1.14233398 C-3 0 -3 0 0 0 Z " fill="#ADDBF1" transform="translate(146,46)"/>
<path d="M0 0 C2.87221724 1.58307454 5.54283199 3.46387732 8.25 5.3125 C9.36761719 6.04243164 9.36761719 6.04243164 10.5078125 6.78710938 C11.21164063 7.26599609 11.91546875 7.74488281 12.640625 8.23828125 C13.60790527 8.888573 13.60790527 8.888573 14.59472656 9.55200195 C16 11 16 11 16 15 C13.66673955 16.7476458 11.45134761 18.18255769 8.9375 19.625 C7.47123257 20.49891783 6.00642399 21.37528728 4.54296875 22.25390625 C3.79063965 22.70266113 3.03831055 23.15141602 2.26318359 23.61376953 C-1.96967293 26.20645123 -6.04797257 29.03446899 -10.12524414 31.86376953 C-13.07480834 33.87311171 -15.51507621 35.26824139 -19 36 C-21.3751944 13.92652671 -21.3751944 13.92652671 -17.59228516 7.67285156 C-13.24563217 3.10229086 -6.4821186 -2.36556462 0 0 Z " fill="#1B49A9" transform="translate(169,168)"/>
<path d="M0 0 C2 2 2 2 2.22705078 5.71533203 C2.22673351 7.31286052 2.21539982 8.91041027 2.1953125 10.5078125 C2.1924826 11.34843231 2.18965271 12.18905212 2.18673706 13.05514526 C2.1755243 15.74524046 2.15041803 18.4350051 2.125 21.125 C2.1149716 22.94660978 2.10584551 24.76822477 2.09765625 26.58984375 C2.07558142 31.06002358 2.04104434 35.52995571 2 40 C0.15063477 40.58789062 0.15063477 40.58789062 -2 41 C-4.41015625 39.59375 -4.41015625 39.59375 -7.0625 37.5 C-11.72928615 33.92650378 -16.48710911 30.71837469 -21.4921875 27.640625 C-24.13697324 25.91039134 -26.56258036 24.00934236 -29 22 C-27.67668039 18.92936088 -26.46352854 17.30727149 -23.69140625 15.44921875 C-23.03140625 15.00102783 -22.37140625 14.55283691 -21.69140625 14.09106445 C-20.98886719 13.62788818 -20.28632812 13.16471191 -19.5625 12.6875 C-18.84835938 12.20692139 -18.13421875 11.72634277 -17.3984375 11.23120117 C-11.6628263 7.38836741 -5.86574879 3.64123813 0 0 Z " fill="#1E51A9" transform="translate(113,142)"/>
<path d="M0 0 C3.53074687 0.88268672 5.14718622 1.55953102 8.046875 3.51171875 C8.81 4.02283203 9.573125 4.53394531 10.359375 5.06054688 C11.14828125 5.59744141 11.9371875 6.13433594 12.75 6.6875 C13.5234375 7.20505859 14.296875 7.72261719 15.09375 8.25585938 C20.18277592 11.68412096 25.1277488 15.27067407 30 19 C28.73008837 22.8097349 27.26284337 23.47683367 23.9765625 25.72265625 C22.955625 26.42583984 21.9346875 27.12902344 20.8828125 27.85351562 C19.27019531 28.94696289 19.27019531 28.94696289 17.625 30.0625 C16.55765625 30.79533203 15.4903125 31.52816406 14.390625 32.28320312 C3.13784866 40 3.13784866 40 0 40 C0 26.8 0 13.6 0 0 Z " fill="#9BD2F0" transform="translate(182,67)"/>
<path d="M0 0 C4.9098551 0.98197102 6.40025197 1.75056467 10.1875 4.6875 C14.64165574 8.04924085 19.16412471 11.00121063 24.00390625 13.7734375 C26 15 26 15 28 17 C28.22705078 18.87939453 28.22705078 18.87939453 28.1953125 21.1328125 C28.18886719 21.93847656 28.18242187 22.74414062 28.17578125 23.57421875 C28.15902344 24.41597656 28.14226562 25.25773437 28.125 26.125 C28.11597656 26.97449219 28.10695312 27.82398437 28.09765625 28.69921875 C28.07405647 30.79959884 28.03818483 32.89983444 28 35 C27.01 35.495 27.01 35.495 26 36 C22.9520073 34.90714937 20.01331333 33.61198305 17.04296875 32.32421875 C11.54245574 30.52260145 5.72074015 29.88011387 0 29 C0 19.43 0 9.86 0 0 Z " fill="#CAE9F6" transform="translate(150,46)"/>
<path d="M0 0 C0 13.53 0 27.06 0 41 C-10.47205713 39.50399184 -13.47507079 35.79050042 -19.94921875 27.8515625 C-22 25 -22 25 -23.58203125 21.7109375 C-24.76054577 18.69422457 -24.76054577 18.69422457 -28 18 C-11.68029228 6.41573356 -11.68029228 6.41573356 -5.5625 2.25 C-4.57443359 1.57710938 -4.57443359 1.57710938 -3.56640625 0.890625 C-2 0 -2 0 0 0 Z " fill="#90C9EA" transform="translate(215,92)"/>
<path d="M0 0 C13.17562028 3.29390507 16.49769602 5.29721451 23.484375 15.79296875 C24.95133329 18.07307092 24.95133329 18.07307092 27 20 C18.1443422 26.54793342 9.09543334 32.79182467 0 39 C-0.66 38.34 -1.32 37.68 -2 37 C-1.34 37 -0.68 37 0 37 C0 24.79 0 12.58 0 0 Z " fill="#326DBB" transform="translate(82,120)"/>
<path d="M0 0 C3.13420868 0.62316832 5.34232286 1.67994112 8.00390625 3.43359375 C8.74447266 3.91763672 9.48503906 4.40167969 10.24804688 4.90039062 C11.01181641 5.40763672 11.77558594 5.91488281 12.5625 6.4375 C13.33013672 6.94087891 14.09777344 7.44425781 14.88867188 7.96289062 C17.93443298 9.96241819 20.96846336 11.97897557 24 14 C24.82155753 19.38152027 25.4823482 26.17197401 22.8984375 31.1015625 C20.13285952 33.63051349 17.79371114 34.0166362 14.125 34.3125 C13.09375 34.209375 12.0625 34.10625 11 34 C7.83991459 28.09112013 5.66797445 22.30409847 3.8125 15.875 C3.42288086 14.57369141 3.42288086 14.57369141 3.02539062 13.24609375 C1.73067263 8.85007451 0.61943863 4.55250077 0 0 Z " fill="#8EC7E7" transform="translate(122,85)"/>
<path d="M0 0 C0 10.89 0 21.78 0 33 C-5.51040087 31.62239978 -6.28088028 29.00968083 -9.12890625 24.32421875 C-11.73958962 19.68603181 -14.10711143 14.95583942 -16.421875 10.1640625 C-17.93597905 7.01554334 -17.93597905 7.01554334 -19.703125 4.2109375 C-21 2 -21 2 -21 0 C-18.25034772 -0.19511725 -15.50057868 -0.38136433 -12.75 -0.5625 C-11.97269531 -0.61857422 -11.19539062 -0.67464844 -10.39453125 -0.73242188 C-9.64042969 -0.78076172 -8.88632813 -0.82910156 -8.109375 -0.87890625 C-7.41811523 -0.9260376 -6.72685547 -0.97316895 -6.01464844 -1.02172852 C-4 -1 -4 -1 0 0 Z " fill="#1C49A6" transform="translate(146,167)"/>
<path d="M0 0 C3.2561101 1.89446406 5.3487671 3.30400843 6.73046875 6.90234375 C7.49776352 10.86036925 7.15298259 12.69403482 5.3125 16.375 C2.02817461 20.10315315 0.48828046 20.83764213 -4.4375 21.375 C-8.69759634 20.92656881 -10.15200084 20.17348478 -13 17 C-14.93624439 12.72412698 -15.23247687 10.77492289 -13.875 6.25 C-10.48115575 0.36733663 -6.83407546 -1.36419165 0 0 Z " fill="#18437D" transform="translate(708,66)"/>
<path d="M0 0 C2.87029869 1.79393668 4.49131638 2.98263276 6 6 C6.34411038 11.24768331 6.5679453 14.81689172 3 19 C-0.65405415 21.29683404 -3.98644937 21.29070332 -8.12890625 20.5859375 C-10 20 -10 20 -12.5 18.0625 C-14.65851584 13.65553016 -14.88367422 9.81286851 -14 5 C-10.54419072 -0.57388593 -6.10736255 -1.22811095 0 0 Z " fill="#16447D" transform="translate(606,147)"/>
<path d="M0 0 C3.85289333 0.55330517 6.1983374 1.56288638 9.3125 3.875 C14.03366207 7.30661856 18.80936369 10.64054719 23.625 13.9375 C25.03394016 14.90482268 26.44280103 15.87226085 27.8515625 16.83984375 C29.41003906 17.90912109 29.41003906 17.90912109 31 19 C30.24332031 19.73605469 29.48664063 20.47210938 28.70703125 21.23046875 C26.47405442 23.5150006 24.56254698 25.73976113 22.6875 28.3125 C22.17574219 29.00988281 21.66398437 29.70726563 21.13671875 30.42578125 C20.76160156 30.94527344 20.38648437 31.46476562 20 32 C18.2421875 31.953125 18.2421875 31.953125 16 31 C14.51490949 28.5829701 13.30540952 26.31029181 12.125 23.75 C11.78275391 23.03650391 11.44050781 22.32300781 11.08789062 21.58789062 C10.04300588 19.39888627 9.01928614 17.20102409 8 15 C7.38296462 13.68222043 6.76578543 12.36450818 6.1484375 11.046875 C4.75004486 8.03801121 3.36672089 5.02335228 2 2 C1.34 2 0.68 2 0 2 C0 1.34 0 0.68 0 0 Z " fill="#78B3DF" transform="translate(80,92)"/>
<path d="M0 0 C0.99 0 1.98 0 3 0 C3 10.56 3 21.12 3 32 C-4.26 32 -11.52 32 -19 32 C-18.01 31.67 -17.02 31.34 -16 31 C-15.29477671 29.34927824 -14.63884539 27.67752758 -14 26 C-12.46817369 23.29561968 -10.79449802 20.68356322 -9.125 18.0625 C-8.69058594 17.37220703 -8.25617188 16.68191406 -7.80859375 15.97070312 C-5.82988575 12.83626328 -3.83314852 9.76601467 -1.6796875 6.74609375 C0.34786237 3.96779634 0.34786237 3.96779634 0 0 Z " fill="#3371BE" transform="translate(143,135)"/>
<path d="M0 0 C0.99 0 1.98 0 3 0 C3.14575327 3.39537852 3.23421542 6.78994902 3.3125 10.1875 C3.35439453 11.14720703 3.39628906 12.10691406 3.43945312 13.09570312 C3.56378001 20.28179726 3.56378001 20.28179726 0.58984375 24.0703125 C-0.26480469 24.70710938 -1.11945313 25.34390625 -2 26 C-2.5775 26.556875 -3.155 27.11375 -3.75 27.6875 C-7.21270093 29.70740887 -11.02909607 30.54004974 -15 31 C-15.66 30.67 -16.32 30.34 -17 30 C-16.35834253 26.86639591 -15.27390401 24.46073909 -13.671875 21.69921875 C-13.20136719 20.88646484 -12.73085937 20.07371094 -12.24609375 19.23632812 C-11.75238281 18.39521484 -11.25867188 17.55410156 -10.75 16.6875 C-10.03263672 15.44323242 -10.03263672 15.44323242 -9.30078125 14.17382812 C-6.43790297 9.25883249 -3.56882934 4.4370848 0 0 Z " fill="#C7E8F6" transform="translate(143,50)"/>
<path d="M0 0 C-3.41288638 3.59482333 -6.86409395 6.46012318 -11 9.1875 C-12.010625 9.86167969 -13.02125 10.53585938 -14.0625 11.23046875 C-19.37895032 14.43306449 -19.37895032 14.43306449 -22 15 C-24.8671875 13.62109375 -24.8671875 13.62109375 -27.875 11.4375 C-28.91914063 10.69242188 -29.96328125 9.94734375 -31.0390625 9.1796875 C-32.01617187 8.46039063 -32.99328125 7.74109375 -34 7 C-35.41591708 6.01974971 -36.83241858 5.04034188 -38.25 4.0625 C-39.1575 3.381875 -40.065 2.70125 -41 2 C-41 1.67 -41 1.34 -41 1 C-36.12535745 0.85647098 -31.25068314 0.71409155 -26.37597656 0.57275391 C-24.71939193 0.52456353 -23.06281623 0.476065 -21.40625 0.42724609 C-19.0182523 0.35692645 -16.63022413 0.28773348 -14.2421875 0.21875 C-13.50757294 0.19687622 -12.77295837 0.17500244 -12.01608276 0.15246582 C-8.00921403 0.03790977 -4.00846759 -0.02205484 0 0 Z " fill="#2256AF" transform="translate(212,163)"/>
<path d="M0 0 C2.9633344 2.54344647 4.27504259 5.34793118 5.8828125 8.875 C6.41003906 10.02484375 6.93726562 11.1746875 7.48046875 12.359375 C8.02316406 13.56078125 8.56585938 14.7621875 9.125 16 C9.68041053 17.2138068 10.23639425 18.42735149 10.79296875 19.640625 C14.82798252 28.48394757 14.82798252 28.48394757 16 32 C14.43662827 31.54464901 12.87434151 31.08557224 11.3125 30.625 C10.44238281 30.36976562 9.57226562 30.11453125 8.67578125 29.8515625 C6.07486881 29.02382686 3.53422977 28.01369191 1 27 C1 39.21 1 51.42 1 64 C0.34 64 -0.32 64 -1 64 C-1.0231271 55.80309439 -1.04091696 47.60620232 -1.05181217 39.40927219 C-1.0570402 35.60348423 -1.06413638 31.79771852 -1.07543945 27.99194336 C-1.0862712 24.32207456 -1.09227744 20.65222722 -1.09487724 16.98234367 C-1.09673097 15.57925008 -1.1003506 14.17615771 -1.10573006 12.7730732 C-1.11294419 10.8143032 -1.11340809 8.8555118 -1.11352539 6.89672852 C-1.115746 5.77976089 -1.11796661 4.66279327 -1.12025452 3.51197815 C-1 1 -1 1 0 0 Z " fill="#478AC8" transform="translate(81,93)"/>
<path d="M0 0 C0.86963379 0.15847412 1.73926758 0.31694824 2.63525391 0.48022461 C5.73444262 0.95897753 8.70523819 1.19858423 11.8359375 1.31640625 C12.89941406 1.35830078 13.96289062 1.40019531 15.05859375 1.44335938 C16.15300781 1.48267578 17.24742188 1.52199219 18.375 1.5625 C20.05142578 1.62727539 20.05142578 1.62727539 21.76171875 1.69335938 C24.50768382 1.79897342 27.25382673 1.89994563 30 2 C30.495 10.415 30.495 10.415 31 19 C27 20 27 20 24.58984375 18.59375 C23.71457031 17.9028125 22.83929688 17.211875 21.9375 16.5 C18.09764714 13.5545707 14.25132333 10.84189711 10.125 8.3125 C6.20412865 5.86686351 3.04639846 3.46659136 0 0 Z " fill="#143999" transform="translate(84,163)"/>
<path d="M0 0 C0.33 0 0.66 0 1 0 C1.14536813 4.39548491 1.23409948 8.79035087 1.3125 13.1875 C1.35439453 14.43337891 1.39628906 15.67925781 1.43945312 16.96289062 C1.56311221 26.18785803 1.56311221 26.18785803 -1.1640625 30.12109375 C-2.09992188 30.74113281 -3.03578125 31.36117187 -4 32 C-5.39798828 33.01707031 -5.39798828 33.01707031 -6.82421875 34.0546875 C-7.76910156 34.65539062 -8.71398437 35.25609375 -9.6875 35.875 C-11.11642578 36.79925781 -11.11642578 36.79925781 -12.57421875 37.7421875 C-13.37472656 38.15726563 -14.17523438 38.57234375 -15 39 C-15.66 38.67 -16.32 38.34 -17 38 C-17 37.34 -17 36.68 -17 36 C-15.68 36 -14.36 36 -13 36 C-12.83056885 35.34588135 -12.6611377 34.6917627 -12.48657227 34.01782227 C-10.59443123 26.87989201 -8.36941301 19.90838236 -5.9375 12.9375 C-5.4105957 11.3915918 -5.4105957 11.3915918 -4.87304688 9.81445312 C-4.53208984 8.83283203 -4.19113281 7.85121094 -3.83984375 6.83984375 C-3.53425537 5.95675537 -3.22866699 5.07366699 -2.91381836 4.16381836 C-2 2 -2 2 0 0 Z " fill="#80BFEA" transform="translate(177,83)"/>
<path d="M0 0 C3.56424455 0.89106114 5.21610851 1.60576448 8.15234375 3.58203125 C8.92900391 4.10216797 9.70566406 4.62230469 10.50585938 5.15820312 C11.70952148 5.97708008 11.70952148 5.97708008 12.9375 6.8125 C13.73607422 7.34681641 14.53464844 7.88113281 15.35742188 8.43164062 C19.37527671 11.13795047 23.27605518 13.89295109 27 17 C26.67 17.33 26.34 17.66 26 18 C23.50323325 17.96094107 21.05140638 17.85554046 18.5625 17.6875 C17.84126953 17.64117432 17.12003906 17.59484863 16.37695312 17.54711914 C10.78892673 17.14699348 5.46063883 16.27983722 0 15 C0 10.05 0 5.1 0 0 Z " fill="#B5DFF2" transform="translate(182,67)"/>
<path d="M0 0 C5.08901827 0.35817137 8.22189558 2.12871793 12.375 5 C13.43460938 5.721875 14.49421875 6.44375 15.5859375 7.1875 C16.38257813 7.785625 17.17921875 8.38375 18 9 C18 9.33 18 9.66 18 10 C13.82051928 10.59859473 9.63968351 11.18621939 5.45727539 11.76391602 C4.03595913 11.96178395 2.61504929 12.16259523 1.19458008 12.36645508 C-0.85234317 12.65969207 -2.90051524 12.9421623 -4.94921875 13.22265625 C-6.79519653 13.48187866 -6.79519653 13.48187866 -8.6784668 13.74633789 C-11.7504919 13.98094532 -14.04276489 13.78777798 -17 13 C-13.91475866 9.67570849 -10.610872 7.27843457 -6.8125 4.8125 C-3.23096198 2.63291177 -3.23096198 2.63291177 0 0 Z " fill="#9FD2EC" transform="translate(102,73)"/>
<path d="M0 0 C2.95680495 1.21304818 5.05464954 2.88947531 7.4375 5 C6.05475283 8.34163899 4.64705991 10.25766748 1.4375 12 C-2.92156708 11.88822905 -5.48977609 9.98493179 -8.5625 7 C-8.5625 6.01 -8.5625 5.02 -8.5625 4 C-3.78472222 0 -3.78472222 0 0 0 Z " fill="#72B4DE" transform="translate(148.5625,119)"/>
<path d="M0 0 C2.56077765 2.56077765 2.31451364 4.42882603 2.4609375 7.9296875 C1.75389389 11.10539183 0.6302081 12.06294784 -2 14 C-5.24094234 14.58526099 -8.4414228 14.51261011 -11.7265625 14.4609375 C-12.67058929 14.46002106 -13.61461609 14.45910461 -14.58724976 14.4581604 C-16.57937662 14.45212584 -18.57149447 14.43638419 -20.56347656 14.41162109 C-23.62078059 14.37505047 -26.67687484 14.37060219 -29.734375 14.37109375 C-31.66928136 14.36126498 -33.60417948 14.34960903 -35.5390625 14.3359375 C-36.45676422 14.33371185 -37.37446594 14.33148621 -38.31997681 14.32919312 C-39.16780731 14.31643341 -40.01563782 14.30367371 -40.88916016 14.29052734 C-41.63654449 14.28290375 -42.38392883 14.27528015 -43.15396118 14.26742554 C-45 14 -45 14 -47 12 C-24.725 11.505 -24.725 11.505 -2 11 C-1.34 7.37 -0.68 3.74 0 0 Z " fill="#32588B" transform="translate(400,120)"/>
<path d="M0 0 C3.98542514 1.36643148 6.92539863 3.10109014 10 6 C10 6.99 10 7.98 10 9 C8.35546875 10.640625 8.35546875 10.640625 6.1875 12.25 C5.12595703 13.06210938 5.12595703 13.06210938 4.04296875 13.890625 C3.03169922 14.43976563 3.03169922 14.43976563 2 15 C1.01 14.67 0.02 14.34 -1 14 C-1.02685938 11.85423363 -1.04633088 9.70837355 -1.0625 7.5625 C-1.07410156 6.36753906 -1.08570313 5.17257813 -1.09765625 3.94140625 C-1 1 -1 1 0 0 Z " fill="#2A5AB8" transform="translate(151,157)"/>
<path d="M0 0 C0 4.62 0 9.24 0 14 C-5.68088674 12.86382265 -6.90204811 11.71674706 -11 8 C-9.24437387 3.08424684 -5.22219793 0 0 0 Z " fill="#77B7E7" transform="translate(178,118)"/>
<path d="M0 0 C0 4.62 0 9.24 0 14 C-3.56679337 13.10830166 -4.95603121 12.5329766 -7.75 10.4375 C-8.36359375 9.98246094 -8.9771875 9.52742188 -9.609375 9.05859375 C-10.06828125 8.70925781 -10.5271875 8.35992187 -11 8 C-4.94594595 0 -4.94594595 0 0 0 Z " fill="#85C5EA" transform="translate(146,79)"/>
<path d="M0 0 C4.18172572 1.04543143 6.61281549 2.38263015 10 5 C10 5.99 10 6.98 10 8 C8.57421875 9.38671875 8.57421875 9.38671875 6.6875 10.6875 C5.76517578 11.34298828 5.76517578 11.34298828 4.82421875 12.01171875 C3 13 3 13 0 13 C0 8.71 0 4.42 0 0 Z " fill="#6FAED8" transform="translate(119,118)"/>
<path d="M0 0 C0.33 0 0.66 0 1 0 C1 3.3 1 6.6 1 10 C-0.29292969 10.09796875 -1.58585938 10.1959375 -2.91796875 10.296875 C-13.1195459 11.14733378 -22.3609139 12.37654793 -32 16 C-32 15.34 -32 14.68 -32 14 C-21.98539426 9.789778 -11.88047272 7.80247251 -1 8 C-1.0309375 6.2984375 -1.0309375 6.2984375 -1.0625 4.5625 C-1 1 -1 1 0 0 Z " fill="#375E89" transform="translate(562,116)"/>
<path d="M0 0 C2.65045426 2.53521712 3.93122197 3.90275049 4.16796875 7.6796875 C4.17441406 8.73414063 4.18085937 9.78859375 4.1875 10.875 C4.20167969 11.92429688 4.21585938 12.97359375 4.23046875 14.0546875 C4.00504937 16.93547071 3.48964317 18.56240208 2 21 C1.34 21 0.68 21 0 21 C-0.90495651 18.0236986 -1.00953046 15.81850538 -0.5625 12.75 C-0.0070002 8.45555921 0.07868346 4.32759038 0 0 Z " fill="#184271" transform="translate(508,134)"/>
<path d="M0 0 C0.66 0 1.32 0 2 0 C2.66 0.66 3.32 1.32 4 2 C8.64998633 3.26817809 11.56323657 2.79583282 16 1 C14.61725283 4.34163899 13.20955991 6.25766748 10 8 C5.64093292 7.88822905 3.07272391 5.98493179 0 3 C0 2.01 0 1.02 0 0 Z " fill="#58A5DA" transform="translate(140,123)"/>
<path d="M0 0 C1.98 0.99 1.98 0.99 4 2 C4.3721042 3.32303717 4.70630173 4.65737935 5 6 C5.99 6.66 6.98 7.32 8 8 C3.375 12 3.375 12 0 12 C0 8.04 0 4.08 0 0 Z " fill="#87C7EA" transform="translate(182,95)"/>
<path d="M0 0 C0.33 0 0.66 0 1 0 C1.25523438 0.87011719 1.25523438 0.87011719 1.515625 1.7578125 C3.08097511 6.80356871 4.84684491 10.75955006 8 15 C4.52308771 14.70197895 2.98487704 13.9882377 0.1875 11.8125 C-2.35683282 8.54121494 -2.46963359 7.03884885 -2 3 C-1.34 3 -0.68 3 0 3 C0 2.01 0 1.02 0 0 Z " fill="#0B338D" transform="translate(120,177)"/>
<path d="M0 0 C0.66 0.33 1.32 0.66 2 1 C2.30859375 3.29296875 2.30859375 3.29296875 2.4375 6.1875 C2.77011216 10.91798405 3.50961701 13.99373172 6 18 C3 18 3 18 0.875 16.5625 C-1.79149405 12.91829147 -1.81107564 9.42083011 -2 5 C-1.34 5 -0.68 5 0 5 C0 3.35 0 1.7 0 0 Z " fill="#0D3B6F" transform="translate(521,142)"/>
<path d="M0 0 C2 2 2 2 2.13525391 4.43017578 C2.08288574 5.4251709 2.03051758 6.42016602 1.9765625 7.4453125 C1.89921875 9.05986328 1.89921875 9.05986328 1.8203125 10.70703125 C1.75585938 11.83496094 1.69140625 12.96289062 1.625 14.125 C1.56828125 15.26066406 1.5115625 16.39632812 1.453125 17.56640625 C1.31135306 20.3782163 1.15991439 23.18917281 1 26 C0.34 26 -0.32 26 -1 26 C-1.02886751 21.85418113 -1.04675327 17.70838784 -1.0625 13.5625 C-1.07087891 12.37849609 -1.07925781 11.19449219 -1.08789062 9.97460938 C-1.09111328 8.84990234 -1.09433594 7.72519531 -1.09765625 6.56640625 C-1.10289307 5.52427979 -1.10812988 4.48215332 -1.11352539 3.40844727 C-1 1 -1 1 0 0 Z " fill="#5299CE" transform="translate(81,93)"/>
<path d="M0 0 C1.98 0 3.96 0 6 0 C6 5.61 6 11.22 6 17 C3.69 18.32 1.38 19.64 -1 21 C-1.66 20.67 -2.32 20.34 -3 20 C-2.05125 19.46375 -1.1025 18.9275 -0.125 18.375 C3.531357 15.43439213 3.75484463 12.19730631 4.375 7.6875 C4.60842372 5.46082082 4.82482141 3.23201686 5 1 C3.35 1 1.7 1 0 1 C0 0.67 0 0.34 0 0 Z " fill="#355B8D" transform="translate(557,133)"/>
<path d="M0 0 C-0.33 0.99 -0.66 1.98 -1 3 C-1.99 3 -2.98 3 -4 3 C-3.67 3.99 -3.34 4.98 -3 6 C-4.98 7.32 -6.96 8.64 -9 10 C-9.66 9.01 -10.32 8.02 -11 7 C-9.73742767 5.82439821 -8.46462916 4.65977135 -7.1875 3.5 C-6.12595703 2.52546875 -6.12595703 2.52546875 -5.04296875 1.53125 C-3 0 -3 0 0 0 Z " fill="#093573" transform="translate(358,98)"/>
<path d="M0 0 C0.33 0 0.66 0 1 0 C1.33 2.97 1.66 5.94 2 9 C2.66 9 3.32 9 4 9 C4 11.97 4 14.94 4 18 C2.68 17.67 1.36 17.34 0 17 C0 11.39 0 5.78 0 0 Z " fill="#103A72" transform="translate(696,148)"/>
<path d="M0 0 C2 2 2 2 2.1953125 3.9453125 C2.13020833 5.96354167 2.06510417 7.98177083 2 10 C1.34 10 0.68 10 0 10 C0 9.01 0 8.02 0 7 C-0.99 7 -1.98 7 -3 7 C-3.33 6.34 -3.66 5.68 -4 5 C-4.66 4.67 -5.32 4.34 -6 4 C-4.02 2.68 -2.04 1.36 0 0 Z " fill="#3367B7" transform="translate(113,142)"/>
<path d="M0 0 C0.66 0 1.32 0 2 0 C2 5.61 2 11.22 2 17 C1.34 17 0.68 17 0 17 C-1.33257403 5.47835991 -1.33257403 5.47835991 0 0 Z " fill="#284FA7" transform="translate(118,163)"/>
<path d="M0 0 C2.475 0.99 2.475 0.99 5 2 C4.67 2.66 4.34 3.32 4 4 C4.99 4.99 5.98 5.98 7 7 C5.02 8.32 3.04 9.64 1 11 C0.67 7.37 0.34 3.74 0 0 Z " fill="#7CB2DC" transform="translate(120,118)"/>
<path d="M0 0 C0.66 0.33 1.32 0.66 2 1 C1.175 1.721875 0.35 2.44375 -0.5 3.1875 C-3.24407806 5.72917366 -3.24407806 5.72917366 -3.3125 8.8125 C-3.209375 9.534375 -3.10625 10.25625 -3 11 C-5.475 10.01 -5.475 10.01 -8 9 C-8 8.01 -8 7.02 -8 6 C-6.25 4.39453125 -6.25 4.39453125 -4 2.8125 C-3.2575 2.28269531 -2.515 1.75289063 -1.75 1.20703125 C-1.1725 0.80871094 -0.595 0.41039063 0 0 Z " fill="#0A3872" transform="translate(633,99)"/>
<path d="M0 0 C4.43458973 1.3937282 6.87378374 3.60582235 10 7 C3.25 5.375 3.25 5.375 1 2 C1 4.97 1 7.94 1 11 C0.67 11 0.34 11 0 11 C-0.19406478 9.35492782 -0.38007935 7.70890406 -0.5625 6.0625 C-0.66691406 5.14597656 -0.77132812 4.22945312 -0.87890625 3.28515625 C-0.91886719 2.53105469 -0.95882812 1.77695313 -1 1 C-0.67 0.67 -0.34 0.34 0 0 Z " fill="#366BBE" transform="translate(151,157)"/>
<path d="M0 0 C2 2 2 2 2.375 5.875 C2.31541346 9.15225968 2.14649924 9.81687595 0 12.5 C-0.66 12.995 -1.32 13.49 -2 14 C-2.99 13.34 -3.98 12.68 -5 12 C-4.01 11.67 -3.02 11.34 -2 11 C-1.34 7.37 -0.68 3.74 0 0 Z " fill="#234979" transform="translate(400,120)"/>
<path d="M0 0 C0.33 1.32 0.66 2.64 1 4 C0.01 4.495 0.01 4.495 -1 5 C-0.67 3.35 -0.34 1.7 0 0 Z M-2 5 C-1.34 5.33 -0.68 5.66 0 6 C-0.75 12.625 -0.75 12.625 -3 16 C-3.66 16 -4.32 16 -5 16 C-5 14.02 -5 12.04 -5 10 C-4.34 10 -3.68 10 -3 10 C-2.67 8.35 -2.34 6.7 -2 5 Z " fill="#09356F" transform="translate(316,96)"/>
<path d="M0 0 C0.33 0 0.66 0 1 0 C1.33 2.97 1.66 5.94 2 9 C1.67 9 1.34 9 1 9 C0.67 12.63 0.34 16.26 0 20 C-0.33 20 -0.66 20 -1 20 C-1.22370596 17.79317093 -1.42830391 15.58440027 -1.625 13.375 C-1.74101563 12.14523438 -1.85703125 10.91546875 -1.9765625 9.6484375 C-2.00034163 5.94681886 -1.37441976 3.40982003 0 0 Z " fill="#153B6A" transform="translate(678,113)"/>
<path d="M0 0 C0.66 0.66 1.32 1.32 2 2 C1.34 3.98 0.68 5.96 0 8 C-0.66 7.67 -1.32 7.34 -2 7 C-2.99 9.64 -3.98 12.28 -5 15 C-5.98574347 11.05702613 -6.11959602 10.4219134 -4.75 6.9375 C-4.49734375 6.26589844 -4.2446875 5.59429687 -3.984375 4.90234375 C-2.9214014 2.84810509 -1.70931942 1.54126835 0 0 Z " fill="#1C487B" transform="translate(318,91)"/>
<path d="M0 0 C0.33 3.96 0.66 7.92 1 12 C-0.32 11.34 -1.64 10.68 -3 10 C-3 7.03 -3 4.06 -3 1 C-1 0 -1 0 0 0 Z " fill="#093F72" transform="translate(595,152)"/>
<path d="M0 0 C2.475 0.495 2.475 0.495 5 1 C4.38461538 6.53846154 4.38461538 6.53846154 2.4375 8.875 C1.963125 9.24625 1.48875 9.6175 1 10 C0.06576355 6.98968256 -0.04449911 6.13349732 1 3 C0.67 2.01 0.34 1.02 0 0 Z " fill="#1A487F" transform="translate(505,101)"/>
<path d="M0 0 C2.31 0.33 4.62 0.66 7 1 C7 2.32 7 3.64 7 5 C4.36 4.67 1.72 4.34 -1 4 C-0.67 2.68 -0.34 1.36 0 0 Z " fill="#1A3AA7" transform="translate(107,173)"/>
<path d="M0 0 C0.99 0.66 1.98 1.32 3 2 C0.03 4.31 -2.94 6.62 -6 9 C-6.33 8.34 -6.66 7.68 -7 7 C-6.34 6.67 -5.68 6.34 -5 6 C-4.5359375 4.7625 -4.5359375 4.7625 -4.0625 3.5 C-3.711875 2.675 -3.36125 1.85 -3 1 C-2.01 0.67 -1.02 0.34 0 0 Z " fill="#1E4D82" transform="translate(663,156)"/>
<path d="M0 0 C1.2065625 0.0309375 1.2065625 0.0309375 2.4375 0.0625 C1.7775 2.0425 1.1175 4.0225 0.4375 6.0625 C-1.2125 5.7325 -2.8625 5.4025 -4.5625 5.0625 C-3.43829114 0.08386076 -3.43829114 0.08386076 0 0 Z " fill="#6AAED9" transform="translate(146.5625,119.9375)"/>
<path d="M0 0 C0.66 1.32 1.32 2.64 2 4 C1.54625 4.433125 1.0925 4.86625 0.625 5.3125 C-1.20024334 7.10798342 -1.20024334 7.10798342 -3 10 C-3.36923077 3.47692308 -3.36923077 3.47692308 -1.5 1.0625 C-1.005 0.711875 -0.51 0.36125 0 0 Z " fill="#0D3972" transform="translate(311,144)"/>
<path d="M0 0 C0.33 0 0.66 0 1 0 C1.33 2.64 1.66 5.28 2 8 C0.68 8.33 -0.64 8.66 -2 9 C-2 7.02 -2 5.04 -2 3 C-1.34 3 -0.68 3 0 3 C0 2.01 0 1.02 0 0 Z " fill="#093996" transform="translate(120,177)"/>
<path d="M0 0 C0.66 0 1.32 0 2 0 C2 3.3 2 6.6 2 10 C0.68 9.67 -0.64 9.34 -2 9 C-1.34 6.03 -0.68 3.06 0 0 Z " fill="#2968BB" transform="translate(144,157)"/>
<path d="M0 0 C1.32 0.66 2.64 1.32 4 2 C3.34 2.66 2.68 3.32 2 4 C1.67 3.67 1.34 3.34 1 3 C0.67 6.96 0.34 10.92 0 15 C-0.33 15 -0.66 15 -1 15 C-1.22211116 13.06403108 -1.42722992 11.12610672 -1.625 9.1875 C-1.74101562 8.10855469 -1.85703125 7.02960938 -1.9765625 5.91796875 C-2 3 -2 3 0 0 Z " fill="#4B89CB" transform="translate(152,134)"/>
<path d="M0 0 C1.5078125 1.3125 1.5078125 1.3125 3 3 C2.86138651 6.32672378 2.58989219 8.29212937 0.4375 10.875 C-0.036875 11.24625 -0.51125 11.6175 -1 12 C-1 9.37165722 -0.80210238 6.91813299 -0.5 4.3125 C-0.4071875 3.50425781 -0.314375 2.69601563 -0.21875 1.86328125 C-0.1465625 1.24839844 -0.074375 0.63351563 0 0 Z " fill="#073770" transform="translate(497,143)"/>
<path d="M0 0 C3.16451962 0.63432938 5.51687779 1.73182928 8.25 3.4375 C8.95640625 3.86933594 9.6628125 4.30117187 10.390625 4.74609375 C10.92171875 5.15988281 11.4528125 5.57367188 12 6 C12 6.66 12 7.32 12 8 C7.44328408 6.48109469 3.68276708 4.04597738 0 1 C0 0.67 0 0.34 0 0 Z " fill="#5FA6DE" transform="translate(192,143)"/>
<path d="M0 0 C0.99 0.33 1.98 0.66 3 1 C3.6875 3.3125 3.6875 3.3125 4 6 C2.5625 7.8125 2.5625 7.8125 1 9 C-0.4783226 6.04335481 -0.06032783 3.25770263 0 0 Z " fill="#0C396F" transform="translate(663,140)"/>
<path d="M0 0 C3.16130743 0.70251276 6.09719933 1.54859967 9 3 C10.3125 5.125 10.3125 5.125 11 7 C7.87691494 6.39196574 5.80748338 5.37985958 3.25 3.5 C2.63640625 3.0565625 2.0228125 2.613125 1.390625 2.15625 C0.93171875 1.7746875 0.4728125 1.393125 0 1 C0 0.67 0 0.34 0 0 Z " fill="#7CC0E6" transform="translate(135,86)"/>
<path d="M0 0 C0.66 0.33 1.32 0.66 2 1 C2 2.65 2 4.3 2 6 C-0.31 6.33 -2.62 6.66 -5 7 C-5 6.34 -5 5.68 -5 5 C-3.68 5 -2.36 5 -1 5 C-0.67 3.35 -0.34 1.7 0 0 Z " fill="#18487C" transform="translate(576,160)"/>
<path d="M0 0 C0.66 0 1.32 0 2 0 C0.7508258 3.45925163 -0.67527795 6.14693203 -3 9 C-3.75 7.3125 -3.75 7.3125 -4 5 C-2.1875 2.25 -2.1875 2.25 0 0 Z " fill="#08376F" transform="translate(628,134)"/>
<path d="M0 0 C0 2 0 2 -2 4.125 C-2.66 4.74375 -3.32 5.3625 -4 6 C-5.32 5.34 -6.64 4.68 -8 4 C-3.375 0 -3.375 0 0 0 Z " fill="#0C3976" transform="translate(642,106)"/>
<path d="M0 0 C-1.39332574 3.36720387 -2.9789286 4.9859524 -6 7 C-6 5.68 -6 4.36 -6 3 C-2.78571429 0 -2.78571429 0 0 0 Z " fill="#0B3774" transform="translate(474,99)"/>
<path d="M0 0 C1.94268841 2.91403262 3.46395304 5.85808576 5 9 C4.01 9 3.02 9 2 9 C0.4375 6.1875 0.4375 6.1875 -1 3 C-0.67 2.01 -0.34 1.02 0 0 Z " fill="#0A3A72" transform="translate(624,151)"/>
<path d="M0 0 C2.97 0 5.94 0 9 0 C6.47519307 2.52480693 4.86176966 2.55738633 1.375 3.125 C0.37210938 3.29257813 -0.63078125 3.46015625 -1.6640625 3.6328125 C-2.43492187 3.75398437 -3.20578125 3.87515625 -4 4 C-2.68 3.34 -1.36 2.68 0 2 C0 1.34 0 0.68 0 0 Z " fill="#174A7E" transform="translate(645,134)"/>
<path d="M0 0 C2.5625 2.25 2.5625 2.25 5 5 C4.8125 7.3125 4.8125 7.3125 4 9 C1.18480957 7.59240479 0.38708362 5.77416723 -1 3 C-0.67 2.01 -0.34 1.02 0 0 Z " fill="#09396F" transform="translate(466,122)"/>
<path d="M0 0 C0.391875 0.45375 0.78375 0.9075 1.1875 1.375 C3.30832487 3.27642919 5.33042235 4.06204028 8 5 C8 5.33 8 5.66 8 6 C2.46153846 6.36923077 2.46153846 6.36923077 0.125 4.5 C-0.24625 4.005 -0.6175 3.51 -1 3 C-0.67 2.01 -0.34 1.02 0 0 Z " fill="#0C3972" transform="translate(698,81)"/>
<path d="M0 0 C2.9375 0.75 2.9375 0.75 6 2 C6.875 4.125 6.875 4.125 7 6 C4.50638429 4.79618552 2.31856917 3.54571278 0 2 C0 1.34 0 0.68 0 0 Z " fill="#2A75C8" transform="translate(155,152)"/>
<path d="M0 0 C0.99 0.33 1.98 0.66 3 1 C1.35 2.65 -0.3 4.3 -2 6 C-2.66 5.01 -3.32 4.02 -4 3 C-2.1875 1.4375 -2.1875 1.4375 0 0 Z " fill="#378FCC" transform="translate(157,130)"/>
<path d="M0 0 C0.33 0 0.66 0 1 0 C2.125 6.75 2.125 6.75 1 9 C0.34 9 -0.32 9 -1 9 C-2.0326802 6.21176345 -2.04509293 5.1322726 -1.0625 2.25 C-0.711875 1.5075 -0.36125 0.765 0 0 Z " fill="#57B5E0" transform="translate(183,128)"/>
<path d="M0 0 C1.65 0 3.3 0 5 0 C5 0.66 5 1.32 5 2 C2.625 3.6875 2.625 3.6875 0 5 C-0.66 4.67 -1.32 4.34 -2 4 C-1.34 2.68 -0.68 1.36 0 0 Z " fill="#194C82" transform="translate(560,157)"/>
<path d="M0 0 C0.66 1.32 1.32 2.64 2 4 C-3.2734375 7.22265625 -3.2734375 7.22265625 -5 8 C-5.66 7.67 -6.32 7.34 -7 7 C-5.47005208 5.76302083 -3.94010417 4.52604167 -2.41015625 3.2890625 C-0.86733563 2.0333609 -0.86733563 2.0333609 0 0 Z " fill="#245382" transform="translate(561,146)"/>
<path d="M0 0 C0.99 0.33 1.98 0.66 3 1 C3.33 2.98 3.66 4.96 4 7 C3.01 7.495 3.01 7.495 2 8 C0.74335022 5.09399739 0 3.20395416 0 0 Z " fill="#0A386E" transform="translate(340,142)"/>
<path d="M0 0 C1.75098126 2.62647188 3.38731308 5.28775382 5 8 C3.125 7.875 3.125 7.875 1 7 C-0.25 3.9375 -0.25 3.9375 -1 1 C-0.67 0.67 -0.34 0.34 0 0 Z " fill="#093971" transform="translate(526,104)"/>
<path d="M0 0 C2.6465335 2.6465335 3.59941997 5.56221264 5 9 C4.01 9.495 4.01 9.495 3 10 C0.96564469 6.27034861 0 4.33094958 0 0 Z " fill="#1A4880" transform="translate(558,107)"/>
</svg>
